<mxfile host="app.diagrams.net" agent="Mozilla/5.0 (Windows NT 10.0; Win64; x64) AppleWebKit/537.36 (KHTML, like Gecko) Chrome/136.0.0.0 Safari/537.36" version="27.1.1">
  <diagram name="Page-1" id="iTvj3NBez8n7UyOTuY_O">
    <mxGraphModel dx="1383" dy="756" grid="1" gridSize="10" guides="1" tooltips="1" connect="1" arrows="1" fold="1" page="1" pageScale="1" pageWidth="850" pageHeight="1100" math="0" shadow="0">
      <root>
        <mxCell id="0" />
        <mxCell id="1" parent="0" />
        <mxCell id="FrtyijtARWGuemnjLWcr-1" value="" style="shape=umlLifeline;perimeter=lifelinePerimeter;whiteSpace=wrap;html=1;container=1;dropTarget=0;collapsible=0;recursiveResize=0;outlineConnect=0;portConstraint=eastwest;newEdgeStyle={&quot;curved&quot;:0,&quot;rounded&quot;:0};participant=umlActor;size=40;" vertex="1" parent="1">
          <mxGeometry x="170" y="240" width="20" height="1210" as="geometry" />
        </mxCell>
        <mxCell id="FrtyijtARWGuemnjLWcr-2" value="" style="html=1;points=[[0,0,0,0,5],[0,1,0,0,-5],[1,0,0,0,5],[1,1,0,0,-5]];perimeter=orthogonalPerimeter;outlineConnect=0;targetShapes=umlLifeline;portConstraint=eastwest;newEdgeStyle={&quot;curved&quot;:0,&quot;rounded&quot;:0};" vertex="1" parent="FrtyijtARWGuemnjLWcr-1">
          <mxGeometry x="5" y="80" width="10" height="1130" as="geometry" />
        </mxCell>
        <mxCell id="FrtyijtARWGuemnjLWcr-3" value="User" style="text;html=1;align=center;verticalAlign=middle;whiteSpace=wrap;rounded=0;" vertex="1" parent="1">
          <mxGeometry x="150" y="290" width="60" height="30" as="geometry" />
        </mxCell>
        <mxCell id="FrtyijtARWGuemnjLWcr-42" value="&lt;strong data-end=&quot;1178&quot; data-start=&quot;1161&quot;&gt;:LoginPopUp&lt;/strong&gt;" style="shape=umlLifeline;perimeter=lifelinePerimeter;whiteSpace=wrap;html=1;container=1;dropTarget=0;collapsible=0;recursiveResize=0;outlineConnect=0;portConstraint=eastwest;newEdgeStyle={&quot;curved&quot;:0,&quot;rounded&quot;:0};fillColor=#dae8fc;strokeColor=#6c8ebf;" vertex="1" parent="1">
          <mxGeometry x="450" y="240" width="100" height="710" as="geometry" />
        </mxCell>
        <mxCell id="FrtyijtARWGuemnjLWcr-43" value="" style="html=1;points=[[0,0,0,0,5],[0,1,0,0,-5],[1,0,0,0,5],[1,1,0,0,-5]];perimeter=orthogonalPerimeter;outlineConnect=0;targetShapes=umlLifeline;portConstraint=eastwest;newEdgeStyle={&quot;curved&quot;:0,&quot;rounded&quot;:0};" vertex="1" parent="FrtyijtARWGuemnjLWcr-42">
          <mxGeometry x="45" y="80" width="10" height="470" as="geometry" />
        </mxCell>
        <mxCell id="FrtyijtARWGuemnjLWcr-47" value="&lt;strong data-end=&quot;1178&quot; data-start=&quot;1161&quot;&gt;:RegisterPopup&lt;/strong&gt;" style="shape=umlLifeline;perimeter=lifelinePerimeter;whiteSpace=wrap;html=1;container=1;dropTarget=0;collapsible=0;recursiveResize=0;outlineConnect=0;portConstraint=eastwest;newEdgeStyle={&quot;curved&quot;:0,&quot;rounded&quot;:0};fillColor=#dae8fc;strokeColor=#6c8ebf;" vertex="1" parent="1">
          <mxGeometry x="800" y="240" width="100" height="1200" as="geometry" />
        </mxCell>
        <mxCell id="FrtyijtARWGuemnjLWcr-48" value="" style="html=1;points=[[0,0,0,0,5],[0,1,0,0,-5],[1,0,0,0,5],[1,1,0,0,-5]];perimeter=orthogonalPerimeter;outlineConnect=0;targetShapes=umlLifeline;portConstraint=eastwest;newEdgeStyle={&quot;curved&quot;:0,&quot;rounded&quot;:0};" vertex="1" parent="FrtyijtARWGuemnjLWcr-47">
          <mxGeometry x="45" y="570" width="10" height="630" as="geometry" />
        </mxCell>
        <mxCell id="FrtyijtARWGuemnjLWcr-49" value="&lt;strong data-end=&quot;1178&quot; data-start=&quot;1161&quot;&gt;:LoginController&lt;/strong&gt;" style="shape=umlLifeline;perimeter=lifelinePerimeter;whiteSpace=wrap;html=1;container=1;dropTarget=0;collapsible=0;recursiveResize=0;outlineConnect=0;portConstraint=eastwest;newEdgeStyle={&quot;curved&quot;:0,&quot;rounded&quot;:0};fillColor=#dae8fc;strokeColor=#6c8ebf;" vertex="1" parent="1">
          <mxGeometry x="1200" y="240" width="100" height="1200" as="geometry" />
        </mxCell>
        <mxCell id="FrtyijtARWGuemnjLWcr-50" value="" style="html=1;points=[[0,0,0,0,5],[0,1,0,0,-5],[1,0,0,0,5],[1,1,0,0,-5]];perimeter=orthogonalPerimeter;outlineConnect=0;targetShapes=umlLifeline;portConstraint=eastwest;newEdgeStyle={&quot;curved&quot;:0,&quot;rounded&quot;:0};" vertex="1" parent="FrtyijtARWGuemnjLWcr-49">
          <mxGeometry x="45" y="80" width="10" height="1120" as="geometry" />
        </mxCell>
        <mxCell id="FrtyijtARWGuemnjLWcr-51" value="&lt;b&gt;:Database&lt;/b&gt;&lt;div&gt;&lt;b&gt;for user info&lt;/b&gt;&lt;/div&gt;" style="shape=umlLifeline;perimeter=lifelinePerimeter;whiteSpace=wrap;html=1;container=1;dropTarget=0;collapsible=0;recursiveResize=0;outlineConnect=0;portConstraint=eastwest;newEdgeStyle={&quot;curved&quot;:0,&quot;rounded&quot;:0};fillColor=#ffe6cc;strokeColor=#d79b00;" vertex="1" parent="1">
          <mxGeometry x="1600" y="240" width="100" height="1210" as="geometry" />
        </mxCell>
        <mxCell id="FrtyijtARWGuemnjLWcr-52" value="" style="html=1;points=[[0,0,0,0,5],[0,1,0,0,-5],[1,0,0,0,5],[1,1,0,0,-5]];perimeter=orthogonalPerimeter;outlineConnect=0;targetShapes=umlLifeline;portConstraint=eastwest;newEdgeStyle={&quot;curved&quot;:0,&quot;rounded&quot;:0};" vertex="1" parent="FrtyijtARWGuemnjLWcr-51">
          <mxGeometry x="45" y="200" width="10" height="1010" as="geometry" />
        </mxCell>
        <mxCell id="FrtyijtARWGuemnjLWcr-53" value="clickLogin()" style="html=1;verticalAlign=bottom;startArrow=oval;startFill=1;endArrow=block;startSize=8;curved=0;rounded=0;" edge="1" parent="1" target="FrtyijtARWGuemnjLWcr-42">
          <mxGeometry x="0.0027" width="60" relative="1" as="geometry">
            <mxPoint x="190" y="320" as="sourcePoint" />
            <mxPoint x="350" y="320" as="targetPoint" />
            <mxPoint as="offset" />
          </mxGeometry>
        </mxCell>
        <mxCell id="FrtyijtARWGuemnjLWcr-54" value="submitLogin(username, password)" style="html=1;verticalAlign=bottom;startArrow=oval;startFill=1;endArrow=block;startSize=8;curved=0;rounded=0;" edge="1" parent="1" target="FrtyijtARWGuemnjLWcr-49">
          <mxGeometry x="0.0027" width="60" relative="1" as="geometry">
            <mxPoint x="510.00352941176465" y="369.9999999999998" as="sourcePoint" />
            <mxPoint x="860.18" y="369.9999999999998" as="targetPoint" />
            <mxPoint as="offset" />
          </mxGeometry>
        </mxCell>
        <mxCell id="FrtyijtARWGuemnjLWcr-55" value="&amp;nbsp;validateCredentials(username, password)" style="html=1;verticalAlign=bottom;startArrow=oval;startFill=1;endArrow=block;startSize=8;curved=0;rounded=0;" edge="1" parent="1">
          <mxGeometry x="0.0027" width="60" relative="1" as="geometry">
            <mxPoint x="1255" y="439.9999999999998" as="sourcePoint" />
            <mxPoint x="1649.4999999999995" y="439.9999999999998" as="targetPoint" />
            <mxPoint as="offset" />
          </mxGeometry>
        </mxCell>
        <mxCell id="FrtyijtARWGuemnjLWcr-58" value="return result (valid / invalid)" style="html=1;verticalAlign=bottom;endArrow=open;dashed=1;endSize=8;curved=0;rounded=0;" edge="1" parent="1">
          <mxGeometry x="0.1626" y="-10" relative="1" as="geometry">
            <mxPoint x="1649.4999999999995" y="510" as="sourcePoint" />
            <mxPoint x="1249.3235294117649" y="510" as="targetPoint" />
            <mxPoint as="offset" />
            <Array as="points">
              <mxPoint x="1520" y="510" />
            </Array>
          </mxGeometry>
        </mxCell>
        <mxCell id="FrtyijtARWGuemnjLWcr-59" value="Alternative" style="shape=umlFrame;whiteSpace=wrap;html=1;pointerEvents=0;" vertex="1" parent="1">
          <mxGeometry x="70" y="540" width="1600" height="260" as="geometry" />
        </mxCell>
        <mxCell id="FrtyijtARWGuemnjLWcr-61" value="IF valid" style="text;html=1;align=center;verticalAlign=middle;whiteSpace=wrap;rounded=0;" vertex="1" parent="1">
          <mxGeometry x="90" y="590" width="60" height="30" as="geometry" />
        </mxCell>
        <mxCell id="FrtyijtARWGuemnjLWcr-62" value="showError(&quot;Wrong credentials&quot;)" style="html=1;verticalAlign=bottom;startArrow=oval;startFill=1;endArrow=block;startSize=8;curved=0;rounded=0;" edge="1" parent="1">
          <mxGeometry x="0.0027" width="60" relative="1" as="geometry">
            <mxPoint x="1240" y="739.9999999999998" as="sourcePoint" />
            <mxPoint x="500" y="739.9999999999998" as="targetPoint" />
            <mxPoint as="offset" />
          </mxGeometry>
        </mxCell>
        <mxCell id="FrtyijtARWGuemnjLWcr-63" value="Alternative" style="shape=umlFrame;whiteSpace=wrap;html=1;pointerEvents=0;" vertex="1" parent="1">
          <mxGeometry x="100" y="650" width="1570" height="130" as="geometry" />
        </mxCell>
        <mxCell id="FrtyijtARWGuemnjLWcr-64" value="else" style="text;html=1;align=center;verticalAlign=middle;whiteSpace=wrap;rounded=0;" vertex="1" parent="1">
          <mxGeometry x="100" y="700" width="60" height="30" as="geometry" />
        </mxCell>
        <mxCell id="FrtyijtARWGuemnjLWcr-65" value="clickRegister()" style="html=1;verticalAlign=bottom;startArrow=oval;startFill=1;endArrow=block;startSize=8;curved=0;rounded=0;" edge="1" parent="1" target="FrtyijtARWGuemnjLWcr-48">
          <mxGeometry x="0.0027" width="60" relative="1" as="geometry">
            <mxPoint x="190" y="860" as="sourcePoint" />
            <mxPoint x="500" y="860" as="targetPoint" />
            <mxPoint as="offset" />
          </mxGeometry>
        </mxCell>
        <mxCell id="FrtyijtARWGuemnjLWcr-66" value="submitRegister(phone, username, password, gender)" style="html=1;verticalAlign=bottom;startArrow=oval;startFill=1;endArrow=block;startSize=8;curved=0;rounded=0;" edge="1" parent="1" target="FrtyijtARWGuemnjLWcr-50">
          <mxGeometry x="0.0027" width="60" relative="1" as="geometry">
            <mxPoint x="860" y="900" as="sourcePoint" />
            <mxPoint x="1170" y="900" as="targetPoint" />
            <mxPoint as="offset" />
          </mxGeometry>
        </mxCell>
        <mxCell id="FrtyijtARWGuemnjLWcr-67" value="checkIfExists(phone, username)" style="html=1;verticalAlign=bottom;startArrow=oval;startFill=1;endArrow=block;startSize=8;curved=0;rounded=0;" edge="1" parent="1">
          <mxGeometry x="0.0027" width="60" relative="1" as="geometry">
            <mxPoint x="1260" y="929.9999999999998" as="sourcePoint" />
            <mxPoint x="1650" y="929.9999999999998" as="targetPoint" />
            <mxPoint as="offset" />
          </mxGeometry>
        </mxCell>
        <mxCell id="FrtyijtARWGuemnjLWcr-68" value="return result (valid / invalid)" style="html=1;verticalAlign=bottom;endArrow=open;dashed=1;endSize=8;curved=0;rounded=0;" edge="1" parent="1">
          <mxGeometry x="0.1626" y="-10" relative="1" as="geometry">
            <mxPoint x="1650.1764705882347" y="980" as="sourcePoint" />
            <mxPoint x="1250" y="980" as="targetPoint" />
            <mxPoint as="offset" />
            <Array as="points">
              <mxPoint x="1520.6764705882351" y="980" />
            </Array>
          </mxGeometry>
        </mxCell>
        <mxCell id="FrtyijtARWGuemnjLWcr-69" value="Alternative" style="shape=umlFrame;whiteSpace=wrap;html=1;pointerEvents=0;" vertex="1" parent="1">
          <mxGeometry x="80" y="1040" width="1590" height="360" as="geometry" />
        </mxCell>
        <mxCell id="FrtyijtARWGuemnjLWcr-70" value="IF exists" style="text;html=1;align=center;verticalAlign=middle;whiteSpace=wrap;rounded=0;" vertex="1" parent="1">
          <mxGeometry x="80" y="1090" width="60" height="30" as="geometry" />
        </mxCell>
        <mxCell id="FrtyijtARWGuemnjLWcr-71" value="showError(&quot;Username/Phone already in use&quot;)" style="html=1;verticalAlign=bottom;startArrow=oval;startFill=1;endArrow=block;startSize=8;curved=0;rounded=0;" edge="1" parent="1">
          <mxGeometry x="0.0027" width="60" relative="1" as="geometry">
            <mxPoint x="1244.5" y="1090" as="sourcePoint" />
            <mxPoint x="850" y="1090" as="targetPoint" />
            <mxPoint as="offset" />
          </mxGeometry>
        </mxCell>
        <mxCell id="FrtyijtARWGuemnjLWcr-72" value="Alternative" style="shape=umlFrame;whiteSpace=wrap;html=1;pointerEvents=0;" vertex="1" parent="1">
          <mxGeometry x="100" y="1130" width="1570" height="180" as="geometry" />
        </mxCell>
        <mxCell id="FrtyijtARWGuemnjLWcr-73" value="saveNewUser(user)" style="html=1;verticalAlign=bottom;startArrow=oval;startFill=1;endArrow=block;startSize=8;curved=0;rounded=0;" edge="1" parent="1" target="FrtyijtARWGuemnjLWcr-52">
          <mxGeometry x="0.0027" width="60" relative="1" as="geometry">
            <mxPoint x="1244.5" y="1170" as="sourcePoint" />
            <mxPoint x="850" y="1170" as="targetPoint" />
            <mxPoint as="offset" />
          </mxGeometry>
        </mxCell>
        <mxCell id="FrtyijtARWGuemnjLWcr-74" value="showMessage(&quot;Now log in...&quot;)" style="html=1;verticalAlign=bottom;startArrow=oval;startFill=1;endArrow=block;startSize=8;curved=0;rounded=0;" edge="1" parent="1">
          <mxGeometry x="0.0027" width="60" relative="1" as="geometry">
            <mxPoint x="1244.5" y="1260" as="sourcePoint" />
            <mxPoint x="850" y="1260" as="targetPoint" />
            <mxPoint as="offset" />
          </mxGeometry>
        </mxCell>
        <mxCell id="FrtyijtARWGuemnjLWcr-75" value="else" style="text;html=1;align=center;verticalAlign=middle;whiteSpace=wrap;rounded=0;" vertex="1" parent="1">
          <mxGeometry x="110" y="1180" width="60" height="30" as="geometry" />
        </mxCell>
        <mxCell id="FrtyijtARWGuemnjLWcr-76" value="showMainScreen()" style="html=1;verticalAlign=bottom;startArrow=oval;startFill=1;endArrow=block;startSize=8;curved=0;rounded=0;" edge="1" parent="1">
          <mxGeometry x="0.0027" width="60" relative="1" as="geometry">
            <mxPoint x="1240" y="604.38" as="sourcePoint" />
            <mxPoint x="500" y="604.38" as="targetPoint" />
            <mxPoint as="offset" />
          </mxGeometry>
        </mxCell>
        <mxCell id="FrtyijtARWGuemnjLWcr-77" value="return success" style="html=1;verticalAlign=bottom;endArrow=open;dashed=1;endSize=8;curved=0;rounded=0;" edge="1" parent="1">
          <mxGeometry x="0.1626" y="-10" relative="1" as="geometry">
            <mxPoint x="1650.1764705882347" y="1219.38" as="sourcePoint" />
            <mxPoint x="1250" y="1219.38" as="targetPoint" />
            <mxPoint as="offset" />
            <Array as="points">
              <mxPoint x="1520.6764705882351" y="1219.38" />
            </Array>
          </mxGeometry>
        </mxCell>
      </root>
    </mxGraphModel>
  </diagram>
</mxfile>
